<?xml version="1.0" encoding="utf-8"?>
<!-- Generator: Adobe Illustrator 22.0.1, SVG Export Plug-In . SVG Version: 6.00 Build 0)  -->
<svg version="1.1" id="Layer_1" xmlns="http://www.w3.org/2000/svg" xmlns:xlink="http://www.w3.org/1999/xlink" x="0px" y="0px"
	 viewBox="0 0 1366 768" style="enable-background:new 0 0 1366 768;" xml:space="preserve">
<style type="text/css">
	.st0{fill:url(#SVGID_1_);}
	.st1{fill:none;}
	.st2{fill:#FFFFFF;}
</style>
<g transform="matrix( 1, 0, 0, 1, 0,0) ">
	<g>
		<g id="Layer5_0_FILL">
			
				<linearGradient id="SVGID_1_" gradientUnits="userSpaceOnUse" x1="683" y1="-214" x2="683" y2="451.8" gradientTransform="matrix(1 0 0 1 0 408)">
				<stop  offset="0" style="stop-color:#71CFFF"/>
				<stop  offset="1" style="stop-color:#FFFFFF"/>
			</linearGradient>
			<path class="st0" d="M1366,768V0H0v768H1366z"/>
		</g>
	</g>
	<g>
		<path id="Layer5_0_1_STROKES" class="st1" d="M0,0h1366v768H0V0z"/>
	</g>
</g>
<g transform="matrix( 1, 0, 0, 1, 0,0) ">
	<g>
		<g id="Layer3_0_FILL">
			<path class="st2" d="M44.3,360.2C32.2,348.1,17.6,342,0.4,342c-17.1,0-31.8,6.1-43.9,18.2s-18.1,26.7-18.1,43.8
				c0,9.2,1.8,17.7,5.3,25.5c-24.4,4.4-46,15.9-64.6,34.5c-24.3,24.3-36.5,53.7-36.5,88c0,34.4,12.1,63.7,36.5,88
				c24.3,24.3,53.7,36.5,88.1,36.5c11.6,0,22.5-1.4,33-4.1c1.6,31.8,13.9,59.1,36.8,82c24.7,24.7,54.5,37,89.4,37s64.7-12.4,89.3-37
				c1.4-1.4,2.7-2.8,4.1-4.2c22.7,19.7,49.5,29.5,80.3,29.5c24.4,0,46.3-6.2,65.6-18.5c15.6,7.4,32.7,11.2,51.4,11.2
				c33.1,0,61.4-11.7,84.8-35.2c1.1-1.1,2.2-2.2,3.2-3.3c10.7,7,22.8,10.5,36.4,10.5c18.6,0,34.5-6.6,47.6-19.8
				c13.2-13.2,19.8-29,19.8-47.7s-6.6-34.5-19.8-47.7s-29-19.8-47.6-19.8c-4,0-7.9,0.3-11.6,0.9c-5.8-15.8-15.1-30.1-27.9-42.9
				c-23.4-23.4-51.7-35.1-84.8-35.1c-21.1,0-40.2,4.7-57.4,14.2c-17.8-9.9-37.6-14.9-59.6-14.9c-10.1,0-19.8,1-29.1,3.2
				c-2.1-7.4-6.1-14-11.9-19.8c-4.6-4.6-9.6-8-15.1-10.3c-3-23.3-13.3-43.7-30.7-61.1c-21.1-21.1-46.5-31.6-76.3-31.6
				c-14.1,0-27.2,2.4-39.4,7.1c-9.7-5.8-20.7-8.7-32.8-8.8c-0.9,0-1.8,0-2.7,0c0.2-2.1,0.3-4.3,0.3-6.5
				C62.5,386.9,56.4,372.3,44.3,360.2 M1359.2,342c-17.1,0-31.7,6.1-43.8,18.2c-12.1,12.1-18.2,26.7-18.2,43.8
				c0,2.2,0.1,4.4,0.3,6.5c-0.9,0-1.8,0-2.7,0c-12.2,0-23.1,2.9-32.9,8.8c-12.1-4.7-25.2-7.1-39.3-7.1c-29.8,0-55.2,10.5-76.3,31.6
				c-17.4,17.4-27.7,37.8-30.7,61.2c-5.5,2.3-10.5,5.7-15,10.3c-5.8,5.8-9.8,12.4-12,19.8c-9.2-2.1-18.9-3.2-29.1-3.2
				c-21.9,0-41.8,5-59.6,14.9c-17.1-9.5-36.3-14.3-57.4-14.3c-33.1,0-61.4,11.7-84.8,35.1c-12.8,12.8-22.2,27.1-28,42.9
				c-3.7-0.6-7.5-0.9-11.5-0.9c-18.6,0-34.5,6.6-47.7,19.8s-19.8,29-19.8,47.7s6.6,34.5,19.8,47.7s29.1,19.8,47.7,19.8
				c13.5,0,25.6-3.5,36.3-10.5c1.1,1.1,2.1,2.2,3.3,3.3c23.4,23.4,51.7,35.2,84.8,35.2c18.6,0,35.7-3.7,51.3-11.1
				c19.3,12.3,41.2,18.5,65.7,18.5c30.9,0,57.7-9.8,80.3-29.5c1.3,1.4,2.7,2.8,4.1,4.2c24.7,24.7,54.4,37,89.3,37s64.7-12.4,89.4-37
				c22.9-22.9,35.2-50.3,36.8-82c10.4,2.7,21.4,4.1,33,4.1c34.4,0,63.7-12.2,88.1-36.5c24.3-24.3,36.4-53.6,36.4-88
				s-12.2-63.7-36.4-88c-18.6-18.6-40.1-30-64.6-34.4c3.5-7.8,5.3-16.3,5.3-25.6c0-17.1-6-31.7-18.1-43.8S1376.3,342,1359.2,342z"/>
		</g>
	</g>
</g>
</svg>
