
<svg xmlns="http://www.w3.org/2000/svg" version="1.1" xmlns:xlink="http://www.w3.org/1999/xlink" preserveAspectRatio="none" x="0px" y="0px" width="1366px" height="768px" viewBox="0 0 1366 768">
<defs>
<g id="clouds_0_Layer0_0_FILL">
<path fill="#FFFFFF" stroke="none" d="
M 335.95 95.8
Q 344.2 91.85 344.2 86.3 344.2 80.75 335.95 76.8 328.35 73.15 317.85 72.9 319.4 70.55 319.75 65.7 320.1 60.8 312.7 57.6 305.35 54.4 299.85 58.45 302.55 49.25 296.35 37.65 290.15 26 272.1 12.8 254 -0.4 222.6 0 191.2 0.4 175.5 11.55 159.8 22.7 155.8 35.85 155.25 -4.8 101.6 21.4 75.85 34 80.35 49.25 71.75 40.7 48.75 49.2 20.05 59.95 42.65 69.5
L 42.3 70.8
Q 38.35 69.8 33.85 69.5 31.75 69.35 29.5 69.35 27.45 69.35 25.5 69.5 15.85 70.1 8.65 73.8 0 78.25 0 84.55 0 90.85 8.65 95.3 16.75 99.45 28 99.75
L 317.6 99.75
Q 328.25 99.5 335.95 95.8
M 678.45 361.2
Q 680 358.85 680.35 354 680.7 349.1 673.3 345.9 665.95 342.7 660.45 346.75 663.15 337.55 656.95 325.95 650.75 314.3 632.7 301.1 614.6 287.9 583.2 288.3 551.8 288.7 536.1 299.85 520.4 311 516.4 324.15 515.85 283.5 462.2 309.7 436.45 322.3 440.95 337.55 432.35 329 409.35 337.5 380.65 348.25 403.25 357.8
L 402.9 359.1
Q 398.95 358.1 394.45 357.8 392.35 357.65 390.1 357.65 388.05 357.65 386.1 357.8 376.45 358.4 369.25 362.1 360.6 366.55 360.6 372.85 360.6 379.15 369.25 383.6 377.35 387.75 388.6 388.05
L 678.2 388.05
Q 688.85 387.8 696.55 384.1 704.8 380.15 704.8 374.6 704.8 369.05 696.55 365.1 688.95 361.45 678.45 361.2
M 1665.4 74.85
Q 1668.1 65.65 1661.9 54.05 1655.7 42.4 1637.65 29.2 1619.55 16 1588.15 16.4 1556.75 16.8 1541.05 27.95 1525.35 39.1 1521.35 52.25 1520.8 11.6 1467.15 37.8 1441.4 50.4 1445.9 65.65 1437.3 57.1 1414.3 65.6 1385.6 76.35 1408.2 85.9
L 1407.85 87.2
Q 1403.9 86.2 1399.4 85.9 1397.3 85.75 1395.05 85.75 1393 85.75 1391.05 85.9 1381.4 86.5 1374.2 90.2 1365.55 94.65 1365.55 100.95 1365.55 107.25 1374.2 111.7 1382.3 115.85 1393.55 116.15
L 1683.15 116.15
Q 1693.8 115.9 1701.5 112.2 1709.75 108.25 1709.75 102.7 1709.75 97.15 1701.5 93.2 1693.9 89.55 1683.4 89.3 1684.95 86.95 1685.3 82.1 1685.65 77.2 1678.25 74 1670.9 70.8 1665.4 74.85
M 2212.15 37.65
Q 2205.95 26 2187.9 12.8 2169.8 -0.4 2138.4 0 2107 0.4 2091.3 11.55 2075.6 22.7 2071.6 35.85 2071.05 -4.8 2017.4 21.4 1991.65 34 1996.15 49.25 1987.55 40.7 1964.55 49.2 1935.85 59.95 1958.45 69.5
L 1958.1 70.8
Q 1954.15 69.8 1949.65 69.5 1947.55 69.35 1945.3 69.35 1943.25 69.35 1941.3 69.5 1931.65 70.1 1924.45 73.8 1915.8 78.25 1915.8 84.55 1915.8 90.85 1924.45 95.3 1932.55 99.45 1943.8 99.75
L 2233.4 99.75
Q 2244.05 99.5 2251.75 95.8 2260 91.85 2260 86.3 2260 80.75 2251.75 76.8 2244.15 73.15 2233.65 72.9 2235.2 70.55 2235.55 65.7 2235.9 60.8 2228.5 57.6 2221.15 54.4 2215.65 58.45 2218.35 49.25 2212.15 37.65
M 2594 388.05
Q 2604.65 387.8 2612.35 384.1 2620.6 380.15 2620.6 374.6 2620.6 369.05 2612.35 365.1 2604.75 361.45 2594.25 361.2 2595.8 358.85 2596.15 354 2596.5 349.1 2589.1 345.9 2581.75 342.7 2576.25 346.75 2578.95 337.55 2572.75 325.95 2566.55 314.3 2548.5 301.1 2530.4 287.9 2499 288.3 2467.6 288.7 2451.9 299.85 2436.2 311 2432.2 324.15 2431.65 283.5 2378 309.7 2352.25 322.3 2356.75 337.55 2348.15 329 2325.15 337.5 2296.45 348.25 2319.05 357.8
L 2318.7 359.1
Q 2314.75 358.1 2310.25 357.8 2308.15 357.65 2305.9 357.65 2303.85 357.65 2301.9 357.8 2292.25 358.4 2285.05 362.1 2276.4 366.55 2276.4 372.85 2276.4 379.15 2285.05 383.6 2293.15 387.75 2304.4 388.05
L 2594 388.05
M 3581.2 74.85
Q 3583.9 65.65 3577.7 54.05 3571.5 42.4 3553.45 29.2 3535.35 16 3503.95 16.4 3472.55 16.8 3456.85 27.95 3441.15 39.1 3437.15 52.25 3436.6 11.6 3382.95 37.8 3357.2 50.4 3361.7 65.65 3353.1 57.1 3330.1 65.6 3301.4 76.35 3324 85.9
L 3323.65 87.2
Q 3319.7 86.2 3315.2 85.9 3313.1 85.75 3310.85 85.75 3308.8 85.75 3306.85 85.9 3297.2 86.5 3290 90.2 3281.35 94.65 3281.35 100.95 3281.35 107.25 3290 111.7 3298.1 115.85 3309.35 116.15
L 3598.95 116.15
Q 3609.6 115.9 3617.3 112.2 3625.55 108.25 3625.55 102.7 3625.55 97.15 3617.3 93.2 3609.7 89.55 3599.2 89.3 3600.75 86.95 3601.1 82.1 3601.45 77.2 3594.05 74 3586.7 70.8 3581.2 74.85 Z"/>
</g>
</defs>

<g transform="matrix( 1, 0, 0, 1, -206.8,-16.4) ">
<g transform="matrix( 1, 0, 0, 1, 0,0) ">
<use xlink:href="#clouds_0_Layer0_0_FILL"/>
</g>
</g>
</svg>
