
<svg xmlns="http://www.w3.org/2000/svg" version="1.1" xmlns:xlink="http://www.w3.org/1999/xlink" preserveAspectRatio="none" x="0px" y="0px" width="193px" height="196px" viewBox="0 0 193 196">
<defs>
<g id="Layer2_0_FILL">
<path fill="#444444" stroke="none" d="
M 9.6 75.05
Q 8.29453125 74.533984375 7.2 74.35 2.8869140625 73.7650390625 1.85 78.75 1.75 79.05 1.7 79.4 0 88.5 0 98.3 0 118.5953125 7.2 135.9 14.3498046875 153.0998046875 28.6 167.35 29.05 167.8 29.5 168.25 29.85 168.6 30.25 168.95 35.45 173.5 41.15 163.7 48.7 149.1 55.2 133 51.9 130.55 50.7 127.7 48.45 122.55 51.6 114.95 53.5 111 54.45 108.95 55.4 106.95 56.05 105.25 45.3 105.4 37.85 100.8 33.3 97.9 30.6 93.4 27.75 88.65 27.85 83.55 27.85 81.65 28.85 80.8 29.55 80.2 31.2 80.2 43 79.25 54.6 82.95 55.8 83.3 56.65 83.8 56.85 79.25 52.6 77.8 48.3 76.35 43.55 76.9 38.75 77.45 32.55 78.1 26.8 78.7 23.6 78.55 16.75 78.35 9.6 75.05
M 97.5 153.85
Q 98.95 153.75 100.5 153.6 106.7 153.1 108.7 143.9 104.05 148 97.5 149.05 97 149.1 96.5 149.15 89.15 148.35 84.1 143.9 86.1 153.1 92.3 153.6 93.85 153.75 95.3 153.8 96.35 153.85 97.5 153.85
M 96.85 133.7
Q 90.1 133.5 83.55 134.6 85.85 138.45 90.7 140.8 92.75 141.8 95.3 142.4 96.4 142.7 97.5 142.45 100.05 141.8 102.1 140.8 106.95 138.45 109.25 134.6 103.45 133.65 97.5 133.7 97.2 133.7 96.85 133.7
M 135.2 121.7
Q 134.55 118 133.35 114.8 130.35 118.75 125.9 121.45 122.05 123.75 117.85 124.65 117.85 129.35 117.35 133.2 124.8 132.55 131.35 128.95 134.9 126.9 135.35 124.7 135.65 123.5 135.2 121.7
M 128.45 106.3
Q 128.45 104.95 128.1 104.45 127.65 103.8 126.75 103.55 125.9 103.35 125.1 103.55 121.2 104.55 119.45 110.05 118.5 113 118.05 117.2 121.5 116.3 123.85 114.7 125.9 113.15 127.1 110.95 128.45 108.65 128.45 106.3
M 76.2 140.7
Q 68.4 139.8 61.6 136.65 55.35 152.4 47.25 167.45 41.95 178.85 51.1 184.45 71 195.45 95.3 196 95.85 196 96.4 196 96.95 196 97.5 196 121.8 195.45 141.7 184.45 150.85 178.85 145.55 167.45 137.45 152.4 131.2 136.65 124.4 139.8 116.6 140.7 116.1 144.85 114.35 150.05 113.45 152.25 112.95 153.2 112.05 154.9 110.95 156.05 108.1 159.1 103.2 159.95 101.3 160.35 97.5 160.4 97 160.4 96.5 160.4
L 95.3 160.4
Q 91.75 160.4 89.6 159.95 84.7 159.1 81.85 156.05 80.75 154.9 79.85 153.2 79.35 152.25 78.45 150.05 76.7 144.85 76.2 140.7
M 59.45 114.8
Q 58.25 118 57.6 121.7 57.15 123.5 57.45 124.7 57.9 126.9 61.45 128.95 68 132.55 75.45 133.2 74.95 129.35 74.95 124.65 70.75 123.75 66.9 121.45 62.45 118.75 59.45 114.8
M 64.7 104.45
Q 64.35 104.95 64.35 106.3 64.35 108.65 65.7 110.95 66.9 113.15 68.95 114.7 71.3 116.3 74.75 117.2 74.3 113 73.35 110.05 71.6 104.55 67.7 103.55 66.9 103.35 66.05 103.55 65.15 103.8 64.7 104.45
M 37.1 86.2
Q 36.2 85.95 35.7 86.45 35.2 87.05 35.95 88.45 37.6 91.15 37.7 91.3 38.8 92.9 39.85 93.95 44.55 98.55 53.85 98.65
L 54.3 98.65
Q 60.4 98.45 60.05 95.25 60.05 95.15 60.05 95.1 59.85 94.3 59.35 93.7 58.7 92.95 56.45 91.8 46.65 86.9 37.1 86.2
M 9.15 56.35
Q 5.2 65.15 11.7 68.65
L 12.05 68.8
Q 15.5 70.5 19.5 71.5 31.05 74.4 41.45 70.2 44.55 68.75 43.95 66.95 43.8 66.4 43.2 65.95 42.5 65.45 42.1 65.2 26.9 57.45 14.45 46.85 11.5 51.45 9.15 56.35
M 23.5 34.75
Q 23.4 34.8 23.35 34.9 22.7 35.65 22.05 36.45 18.95 40.9 23.8 45.9 24.2 46.25 24.6 46.55 30.05 50.8 40.85 56.05 42.65 57 44.3 57.7 50.85 59.85 47.35 54.55 41.2 45.85 34.85 37 34.15 36 33.45 35.05 29.05 29.85 23.5 34.75
M 45.75 15.35
L 45.2 15.7
Q 42.75 17.3 40.35 19.05 34.05 24.2 38.05 30.55 38.6 31.35 39.2 32.15 47.05 42.9 56.2 53.2 56.75 53.95 57.45 53.95 58.15 54.05 58.95 52.95 62.65 48.1 63.55 41.4 64.4 35.2 62.7 28.7 61.35 23.45 58.1 17.7
L 58 17.5
Q 53.8 10.4 45.75 15.35
M 133.45 93.7
Q 132.95 94.3 132.75 95.1 132.75 95.15 132.75 95.25 132.4 98.45 138.5 98.65
L 138.95 98.65
Q 148.25 98.55 152.95 93.95 154 92.9 155.1 91.3 155.2 91.15 156.85 88.45 157.6 87.05 157.1 86.45 156.6 85.95 155.7 86.2 146.15 86.9 136.35 91.8 134.1 92.95 133.45 93.7
M 110 90.85
Q 104.2 90.2 97.5 90.2 90.2 90.15 81.8 90.95 72.9 92 68.2 96.55 72.6 97.35 76.1 101.05 79.25 104.35 80.85 109.05 82.05 112.95 82.25 118.15 82.35 120.95 82.1 127.45 88.55 126.9 95.3 126.9
L 96.4 126.9
Q 96.95 126.9 97.5 126.9 104.25 126.9 110.7 127.45 110.45 120.95 110.55 118.15 110.75 112.95 111.95 109.05 113.55 104.35 116.7 101.05 120.2 97.35 124.6 96.55 119.65 91.75 110 90.85
M 125.25 5.1
Q 125.05 5.05 124.9 5 112 0.95 97.5 0.65
L 95.3 0.65
Q 80.85 0.95 67.9 5 67.75 5.05 67.55 5.1
L 67.05 5.25
Q 60.05 7.75 62.65 13.45 63.4 14.7 64.05 15.9 65.25 18 66.1 19.75 70.45 28.65 70.6 36.55 70.75 41.55 68.5 51.2 66.3 60.95 66.35 65.8 66.45 71.55 68.6 77 70.55 81.95 73.9 85.8 84.2 83.8 95.3 83.55
L 97.35 83.55
Q 97.45 83.55 97.5 83.55 108.6 83.8 118.9 85.8 122.25 81.95 124.2 77 126.35 71.55 126.45 65.8 126.5 60.95 124.3 51.2 122.05 41.55 122.2 36.55 122.35 28.65 126.7 19.75 127.55 18 128.75 15.9 129.4 14.7 130.15 13.45 132.75 7.75 125.75 5.25
L 125.25 5.1
M 152.45 19.05
Q 150.05 17.3 147.6 15.7
L 147.05 15.35
Q 139 10.4 134.8 17.5
L 134.7 17.7
Q 131.45 23.45 130.1 28.7 128.4 35.2 129.25 41.4 130.15 48.1 133.85 52.95 134.65 54.05 135.35 53.95 136.05 53.95 136.6 53.2 145.75 42.9 153.6 32.15 154.2 31.35 154.75 30.55 158.75 24.2 152.45 19.05
M 163.95 80.8
Q 164.95 81.65 164.95 83.55 165.05 88.65 162.2 93.4 159.5 97.9 154.95 100.8 147.5 105.4 136.75 105.25 137.4 106.95 138.35 108.95 139.3 111 141.2 114.95 144.35 122.55 142.1 127.7 140.9 130.55 137.6 133 144.1 149.1 151.65 163.7 157.35 173.5 162.55 168.95 162.95 168.6 163.3 168.25 163.75 167.8 164.2 167.35 173.5 158.05 179.75 147.55 192.8 125.6 192.8 98.3 192.8 88.5 191.1 79.4 191.05 79.05 190.95 78.75 189.65 72.5 183.2 75.05 181.45 75.85 179.75 76.5 174.4 78.4 169.2 78.55 166 78.7 160.25 78.1 154.05 77.45 148.25 76.7 142.4 75.95 139.05 77.8 135.65 79.65 136.15 83.8 137 83.3 138.2 82.95 149.8 79.25 161.6 80.2 163.25 80.2 163.95 80.8
M 179.75 49.1
Q 179.05 47.95 178.35 46.85 165.9 57.45 150.7 65.2 150.3 65.45 149.6 65.95 149 66.4 148.85 66.95 148.25 68.75 151.35 70.2 161.75 74.4 173.3 71.5 176.75 70.65 179.75 69.3 180.25 69.05 180.75 68.8
L 181.1 68.65
Q 187.6 65.15 183.65 56.35 181.85 52.65 179.75 49.1
M 169 45.9
Q 173.85 40.9 170.75 36.45 170.1 35.65 169.45 34.9 169.4 34.8 169.3 34.75 163.75 29.85 159.35 35.05 158.65 36 157.95 37 151.6 45.85 145.45 54.55 141.95 59.85 148.5 57.7 150.15 57 151.95 56.05 162.75 50.8 168.2 46.55 168.6 46.25 169 45.9 Z"/>
</g>
</defs>

<g transform="matrix( 1, 0, 0, 1, 0,0) ">
<use xlink:href="#Layer2_0_FILL"/>
</g>
</svg>
