
<svg xmlns="http://www.w3.org/2000/svg" version="1.1" xmlns:xlink="http://www.w3.org/1999/xlink" preserveAspectRatio="none" x="0px" y="0px" width="1366px" height="768px" viewBox="0 0 1366 768">
<defs>
<g id="mountains_0_Layer0_0_FILL">
<path fill="#267CFF" stroke="none" d="
M 460.4 35.2
L 592.8 201.85 632.6 170.55 460.4 35.2
M 499.25 189.7
L 381.55 97.2 302.7 35.2 353.65 118.1 298.65 118.1 399.5 268.1 499.25 189.7
M 696.2 120.5
L 733.9 173.15 710.7 173.15 803.05 296.7 861.7 250.6 732.85 149.3 696.2 120.5
M 792.95 102
L 806 159.55 836.1 135.9 792.95 102
M 1209.15 157.4
L 1170.3 126.85 1008.9 0 1042.05 162.15 1000.95 162.15 1043.9 287.35 1209.15 157.4
M 1181.55 118
L 1212.15 140.6 1232.5 123.8 1256.7 141.9 1282.55 123 1228.85 80.8 1181.55 118
M 1302.65 191.6
L 1393.15 52.95 1293.3 131.45 1259.75 157.85 1302.65 191.6 Z"/>

<path fill="#2849AD" stroke="none" d="
M 1393.15 52.95
L 1302.65 191.6 1259.75 157.85 1293.3 131.45 1282.55 123 1256.7 141.9 1232.5 123.8 1212.15 140.6 1181.55 118 1170.3 126.85 1209.15 157.4 1043.9 287.35 1000.95 162.15 1042.05 162.15 1008.9 0 836.1 135.9 806 159.55 792.95 102 732.85 149.3 861.7 250.6 803.05 296.7 710.7 173.15 733.9 173.15 696.2 120.5 632.6 170.55 592.8 201.85 460.4 35.2 381.55 97.2 499.25 189.7 399.5 268.1 298.65 118.1 353.65 118.1 302.7 35.2 0 273.2 302.7 511.15 330.05 489.7 526.55 644.15 641.7 553.65 696.2 596.45 763.95 543.25 929.4 673.3 1119.7 523.75 1234.15 613.7 1367.6 508.8 1393.15 528.9 1695.9 290.9 1393.15 52.95 Z"/>
</g>
</defs>

<g transform="matrix( 1, 0, 0, 1, -123.8,466.3) ">
<g transform="matrix( 1, 0, 0, 1, 0,0) ">
<use xlink:href="#mountains_0_Layer0_0_FILL"/>
</g>
</g>
</svg>
