
<svg xmlns="http://www.w3.org/2000/svg" version="1.1" xmlns:xlink="http://www.w3.org/1999/xlink" preserveAspectRatio="none" x="0px" y="0px" width="3626px" height="389px" viewBox="0 0 3626 389">
<defs>
<g id="Layer0_0_FILL">
<path fill="#FFFFFF" stroke="none" d="
M 344.2 92.8
Q 344.2 87.25 335.95 83.3 328.35 79.65 317.85 79.4 319.4 77.05 319.75 72.2 320.1 67.3 312.7 64.1 305.35 60.9 299.85 64.95 302.55 55.75 296.35 44.15 290.15 32.5 272.1 19.3 254 6.1 222.6 6.5 191.2 6.9 175.5 18.05 159.8 29.2 155.8 42.35 155.25 1.7 101.6 27.9 75.85 40.5 80.35 55.75 71.75 47.2 48.75 55.7 20.05 66.45 42.65 76
L 42.3 77.3
Q 38.35 76.3 33.85 76 31.75 75.85 29.5 75.85 27.45 75.85 25.5 76 15.85 76.6 8.65 80.3 0 84.75 0 91.05 0 97.35 8.65 101.8 16.75 105.95 28 106.25
L 317.6 106.25
Q 328.25 106 335.95 102.3 344.2 98.35 344.2 92.8
M 673.3 352.4
Q 665.95 349.2 660.45 353.25 663.15 344.05 656.95 332.45 650.75 320.8 632.7 307.6 614.6 294.4 583.2 294.8 568.99296875 294.9810546875 558 297.35 544.696484375 300.244921875 536.1 306.35 520.4 317.5 516.4 330.65 515.85 290 462.2 316.2 436.45 328.8 440.95 344.05 432.35 335.5 409.35 344 380.65 354.75 403.25 364.3
L 402.9 365.6
Q 398.95 364.6 394.45 364.3 392.35 364.15 390.1 364.15 388.05 364.15 386.1 364.3 376.45 364.9 369.25 368.6 360.6 373.05 360.6 379.35 360.6 385.65 369.25 390.1 377.35 394.25 388.6 394.55
L 678.2 394.55
Q 688.85 394.3 696.55 390.6 704.8 386.65 704.8 381.1 704.8 375.55 696.55 371.6 688.95 367.95 678.45 367.7 680 365.35 680.35 360.5 680.7 355.6 673.3 352.4
M 1665.4 81.35
Q 1668.1 72.15 1661.9 60.55 1655.7 48.9 1637.65 35.7 1619.55 22.5 1588.15 22.9 1556.75 23.3 1541.05 34.45 1525.35 45.6 1521.35 58.75 1520.8 18.1 1467.15 44.3 1441.4 56.9 1445.9 72.15 1437.3 63.6 1414.3 72.1 1385.6 82.85 1408.2 92.4
L 1407.85 93.7
Q 1403.9 92.7 1399.4 92.4 1397.3 92.25 1395.05 92.25 1393 92.25 1391.05 92.4 1381.4 93 1374.2 96.7 1365.55 101.15 1365.55 107.45 1365.55 113.75 1374.2 118.2 1382.3 122.35 1393.55 122.65
L 1683.15 122.65
Q 1693.8 122.4 1701.5 118.7 1709.75 114.75 1709.75 109.2 1709.75 103.65 1701.5 99.7 1693.9 96.05 1683.4 95.8 1684.95 93.45 1685.3 88.6 1685.65 83.7 1678.25 80.5 1670.9 77.3 1665.4 81.35
M 2212.15 44.15
Q 2205.95 32.5 2187.9 19.3 2169.8 6.1 2138.4 6.5 2107 6.9 2091.3 18.05 2075.6 29.2 2071.6 42.35 2071.05 1.7 2017.4 27.9 1991.65 40.5 1996.15 55.75 1987.55 47.2 1964.55 55.7 1935.85 66.45 1958.45 76
L 1958.1 77.3
Q 1954.15 76.3 1949.65 76 1947.55 75.85 1945.3 75.85 1943.25 75.85 1941.3 76 1931.65 76.6 1924.45 80.3 1915.8 84.75 1915.8 91.05 1915.8 97.35 1924.45 101.8 1932.55 105.95 1943.8 106.25
L 2233.4 106.25
Q 2244.05 106 2251.75 102.3 2260 98.35 2260 92.8 2260 87.25 2251.75 83.3 2244.15 79.65 2233.65 79.4 2235.2 77.05 2235.55 72.2 2235.9 67.3 2228.5 64.1 2221.15 60.9 2215.65 64.95 2218.35 55.75 2212.15 44.15
M 2594 394.55
Q 2604.65 394.3 2612.35 390.6 2620.6 386.65 2620.6 381.1 2620.6 375.55 2612.35 371.6 2604.75 367.95 2594.25 367.7 2595.8 365.35 2596.15 360.5 2596.5 355.6 2589.1 352.4 2581.75 349.2 2576.25 353.25 2578.95 344.05 2572.75 332.45 2566.55 320.8 2548.5 307.6 2530.4 294.4 2499 294.8 2467.6 295.2 2451.9 306.35 2436.2 317.5 2432.2 330.65 2431.65 290 2378 316.2 2352.25 328.8 2356.75 344.05 2348.15 335.5 2325.15 344 2296.45 354.75 2319.05 364.3
L 2318.7 365.6
Q 2314.75 364.6 2310.25 364.3 2308.15 364.15 2305.9 364.15 2303.85 364.15 2301.9 364.3 2292.25 364.9 2285.05 368.6 2276.4 373.05 2276.4 379.35 2276.4 385.65 2285.05 390.1 2293.15 394.25 2304.4 394.55
L 2594 394.55
M 3581.2 81.35
Q 3583.9 72.15 3577.7 60.55 3571.5 48.9 3553.45 35.7 3535.35 22.5 3503.95 22.9 3472.55 23.3 3456.85 34.45 3441.15 45.6 3437.15 58.75 3436.6 18.1 3382.95 44.3 3357.2 56.9 3361.7 72.15 3353.1 63.6 3330.1 72.1 3301.4 82.85 3324 92.4
L 3323.65 93.7
Q 3319.7 92.7 3315.2 92.4 3313.1 92.25 3310.85 92.25 3308.8 92.25 3306.85 92.4 3297.2 93 3290 96.7 3281.35 101.15 3281.35 107.45 3281.35 113.75 3290 118.2 3298.1 122.35 3309.35 122.65
L 3598.95 122.65
Q 3609.6 122.4 3617.3 118.7 3625.55 114.75 3625.55 109.2 3625.55 103.65 3617.3 99.7 3609.7 96.05 3599.2 95.8 3600.75 93.45 3601.1 88.6 3601.45 83.7 3594.05 80.5 3586.7 77.3 3581.2 81.35 Z"/>
</g>
</defs>

<g transform="matrix( 1, 0, 0, 1, 0,0) ">
<use xlink:href="#Layer0_0_FILL"/>
</g>
</svg>
