
<svg xmlns="http://www.w3.org/2000/svg" version="1.1" xmlns:xlink="http://www.w3.org/1999/xlink" preserveAspectRatio="none" x="0px" y="0px" width="1366px" height="768px" viewBox="0 0 1366 768">
<defs>
<g id="trees_0_Layer0_0_FILL">
<path fill="#389978" stroke="none" d="
M 550.5 730.35
L 644.2 442.45 550.5 154.55 550.5 730.35
M 148.25 167.3
L 93.8 0 129.65 349.7 168.65 230 148.25 167.3
M 292.8 184.15
L 278.5 140.2 280.6 221.6 292.8 184.15
M 187.3 172.75
L 166.9 110.05 168.65 230 187.3 172.75
M 469.25 154.55
L 481.55 366.2 509.85 279.3 469.25 154.55
M 331.45 381.15
L 388.95 204.75 356.15 104.05 362.7 250.6 335.6 167.25 316.95 110.05 331.45 381.15
M 408.95 143.25
L 404.1 158.2 408.95 719.05 437.25 632.15 477.85 507.35 456.7 442.45 481.55 366.25 440.95 241.5 408.95 143.25
M 1004.65 642.95
L 1051.5 499 957.8 211.1 1004.65 642.95
M 879.3 546
L 864 499 889.15 421.9 810.7 180.95 810.7 756.75 879.3 546
M 775 290.5
L 750.4 214.9 755.1 351.6 775 290.5
M 1204.05 419.8
L 1237.1 521.25 1297.85 131.9 1268.2 222.9 1204.05 419.8
M 1164.25 231.5
L 1169.3 216 1149.3 154.55 1164.25 231.5
M 1354.55 231.15
L 1306.8 377.6 1344.7 493.8 1400.6 89.7 1354.55 231.15
M 1331.05 159.05
L 1318.85 196.45 1330.6 232.5 1331.05 159.05 Z"/>

<path fill="#244F47" stroke="none" d="
M 168.65 230
L 166.9 110.05 148.25 167.3 168.65 230
M 388.95 204.75
L 331.45 381.15 316.95 110.05 292.8 184.15 280.6 221.6 278.5 140.2 263.75 185.55 223.45 61.8 187.3 172.75 168.65 230 129.65 349.7 93.8 0 0 287.9 93.8 575.8 112.45 518.65 166.9 685.85 203.05 574.9 223.45 637.6 238.2 592.3 278.5 716 302.65 641.9 316.95 685.85 337.55 622.65 356.15 679.85 376.15 618.4 408.95 719.05 404.1 158.2 388.95 204.75
M 440.95 241.5
L 481.55 366.25 456.7 442.45 477.85 507.35 437.25 632.15 469.25 730.35 509.85 605.6 550.5 730.35 550.5 154.55 509.85 279.3 481.55 366.2 469.25 154.55 440.95 241.5
M 356.15 104.05
L 335.6 167.25 362.7 250.6 356.15 104.05
M 864 499
L 879.3 546 957.8 786.9 1004.65 642.95 957.8 211.1 889.15 421.9 864 499
M 755.1 351.6
L 750.4 214.9 656.6 502.8 750.4 790.7 786.05 681.15 810.7 756.75 810.7 180.95 775 290.5 755.1 351.6
M 1318.85 196.45
L 1297.85 131.9 1237.1 521.25 1204.05 419.8 1268.2 222.9 1251.85 172.6 1234.8 224.95 1200.6 119.85 1169.3 216 1164.25 231.5 1149.3 154.55 1055.5 442.45 1149.3 730.35 1180.6 634.25 1200.6 695.65 1217.65 643.35 1251.85 748.4 1281.5 657.4 1297.85 707.7 1310.05 670.35 1331.05 734.85 1377.1 593.4 1400.6 665.5 1436.7 554.6 1458.55 621.7 1552.25 333.8 1458.55 45.9 1422.45 156.8 1400.6 89.7 1344.7 493.8 1306.8 377.6 1354.55 231.15 1331.05 159.05 1330.6 232.5 1318.85 196.45 Z"/>
</g>
</defs>

<g transform="matrix( 1, 0, 0, 1, -94.45,502.6) ">
<g transform="matrix( 1, 0, 0, 1, 0,0) ">
<use xlink:href="#trees_0_Layer0_0_FILL"/>
</g>
</g>
</svg>
